{
	"asset":{
		"generator":"Khronos glTF Blender I/O v4.1.63",
		"version":"2.0"
	},
	"extensionsUsed":[
		"KHR_materials_emissive_strength"
	],
	"scene":0,
	"scenes":[
		{
			"name":"Scene",
			"nodes":[
				0,
				1,
				2
			]
		}
	],
	"nodes":[
		{
			"mesh":0,
			"name":"Plane",
			"rotation":[
				0,
				0.7071068286895752,
				-0.7071068286895752,
				0
			],
			"scale":[
				-54.07987976074219,
				-8.497127532958984,
				-34.86836242675781
			],
			"translation":[
				0.017891883850097656,
				34.71666717529297,
				-7.609628677368164
			]
		},
		{
			"mesh":1,
			"name":"bordo",
			"scale":[
				4.479124069213867,
				4.479124069213867,
				4.479124069213867
			],
			"translation":[
				0,
				0.47296881675720215,
				0.08197197318077087
			]
		},
		{
			"mesh":2,
			"name":"piano.001",
			"scale":[
				4.479124069213867,
				4.479124069213867,
				4.479124069213867
			],
			"translation":[
				0,
				0.47296881675720215,
				0.08197197318077087
			]
		}
	],
	"materials":[
		{
			"doubleSided":true,
			"name":"Material.005",
			"pbrMetallicRoughness":{
				"baseColorFactor":[
					0.13663877546787262,
					0.35613811016082764,
					0.5598995685577393,
					1
				],
				"metallicFactor":0,
				"roughnessFactor":0.5
			}
		},
		{
			"doubleSided":true,
			"emissiveFactor":[
				0.7794081568717957,
				0.22254601120948792,
				1
			],
			"extensions":{
				"KHR_materials_emissive_strength":{
					"emissiveStrength":20
				}
			},
			"name":"Material",
			"pbrMetallicRoughness":{
				"baseColorFactor":[
					0,
					0,
					0,
					1
				]
			}
		},
		{
			"doubleSided":true,
			"name":"Material.002",
			"pbrMetallicRoughness":{
				"baseColorFactor":[
					0.006770065054297447,
					0.021140333265066147,
					0.23830950260162354,
					1
				],
				"metallicFactor":0,
				"roughnessFactor":0.2636363208293915
			}
		}
	],
	"meshes":[
		{
			"name":"Plane.009",
			"primitives":[
				{
					"attributes":{
						"POSITION":0,
						"NORMAL":1,
						"TEXCOORD_0":2
					},
					"indices":3,
					"material":0
				}
			]
		},
		{
			"name":"Plane.018",
			"primitives":[
				{
					"attributes":{
						"POSITION":4,
						"NORMAL":5,
						"TEXCOORD_0":6,
						"TEXCOORD_1":7
					},
					"indices":8,
					"material":1
				}
			]
		},
		{
			"name":"Plane.016",
			"primitives":[
				{
					"attributes":{
						"POSITION":9,
						"NORMAL":10,
						"TEXCOORD_0":11,
						"TEXCOORD_1":12
					},
					"indices":13,
					"material":2
				}
			]
		}
	],
	"accessors":[
		{
			"bufferView":0,
			"componentType":5126,
			"count":4,
			"max":[
				1,
				0,
				1
			],
			"min":[
				-1,
				0,
				-1
			],
			"type":"VEC3"
		},
		{
			"bufferView":1,
			"componentType":5126,
			"count":4,
			"type":"VEC3"
		},
		{
			"bufferView":2,
			"componentType":5126,
			"count":4,
			"type":"VEC2"
		},
		{
			"bufferView":3,
			"componentType":5123,
			"count":6,
			"type":"SCALAR"
		},
		{
			"bufferView":4,
			"componentType":5126,
			"count":56,
			"max":[
				0.4439504146575928,
				1.4356317520141602,
				-1.0095967054367065
			],
			"min":[
				-0.4439504146575928,
				0.23027798533439636,
				-1.045637607574463
			],
			"type":"VEC3"
		},
		{
			"bufferView":5,
			"componentType":5126,
			"count":56,
			"type":"VEC3"
		},
		{
			"bufferView":6,
			"componentType":5126,
			"count":56,
			"type":"VEC2"
		},
		{
			"bufferView":7,
			"componentType":5126,
			"count":56,
			"type":"VEC2"
		},
		{
			"bufferView":8,
			"componentType":5123,
			"count":336,
			"type":"SCALAR"
		},
		{
			"bufferView":9,
			"componentType":5126,
			"count":748,
			"max":[
				12.355892181396484,
				15.915188789367676,
				18.558658599853516
			],
			"min":[
				-12.355892181396484,
				-0.053360141813755035,
				-1.0533602237701416
			],
			"type":"VEC3"
		},
		{
			"bufferView":10,
			"componentType":5126,
			"count":748,
			"type":"VEC3"
		},
		{
			"bufferView":11,
			"componentType":5126,
			"count":748,
			"type":"VEC2"
		},
		{
			"bufferView":12,
			"componentType":5126,
			"count":748,
			"type":"VEC2"
		},
		{
			"bufferView":13,
			"componentType":5123,
			"count":4140,
			"type":"SCALAR"
		}
	],
	"bufferViews":[
		{
			"buffer":0,
			"byteLength":48,
			"byteOffset":0,
			"target":34962
		},
		{
			"buffer":0,
			"byteLength":48,
			"byteOffset":48,
			"target":34962
		},
		{
			"buffer":0,
			"byteLength":32,
			"byteOffset":96,
			"target":34962
		},
		{
			"buffer":0,
			"byteLength":12,
			"byteOffset":128,
			"target":34963
		},
		{
			"buffer":0,
			"byteLength":672,
			"byteOffset":140,
			"target":34962
		},
		{
			"buffer":0,
			"byteLength":672,
			"byteOffset":812,
			"target":34962
		},
		{
			"buffer":0,
			"byteLength":448,
			"byteOffset":1484,
			"target":34962
		},
		{
			"buffer":0,
			"byteLength":448,
			"byteOffset":1932,
			"target":34962
		},
		{
			"buffer":0,
			"byteLength":672,
			"byteOffset":2380,
			"target":34963
		},
		{
			"buffer":0,
			"byteLength":8976,
			"byteOffset":3052,
			"target":34962
		},
		{
			"buffer":0,
			"byteLength":8976,
			"byteOffset":12028,
			"target":34962
		},
		{
			"buffer":0,
			"byteLength":5984,
			"byteOffset":21004,
			"target":34962
		},
		{
			"buffer":0,
			"byteLength":5984,
			"byteOffset":26988,
			"target":34962
		},
		{
			"buffer":0,
			"byteLength":8280,
			"byteOffset":32972,
			"target":34963
		}
	],
	"buffers":[
		{
			"byteLength":41252,
			"uri":"scena_tarot.bin"
		}
	]
}
